<svg xmlns="http://www.w3.org/2000/svg" width="1270" height="1270" version="1.2"><defs><clipPath id="cp1" clipPathUnits="userSpaceOnUse"><path d="M1294.67 96.33V1175H17.33V96.33z"/></clipPath><clipPath id="cp2" clipPathUnits="userSpaceOnUse"><path d="M1009.33 821.67V1119H17.92V821.67z"/></clipPath><clipPath id="cp3" clipPathUnits="userSpaceOnUse"><path d="M1009.33 821.67V1119h-992V821.67z"/></clipPath><clipPath id="cp4" clipPathUnits="userSpaceOnUse"><path d="M1009.28 822.09v295.68H721.33V822.09z"/></clipPath><clipPath id="cp5" clipPathUnits="userSpaceOnUse"><path d="M1009.33 821.67V1119h-288V821.67z"/></clipPath><clipPath id="cp6" clipPathUnits="userSpaceOnUse"><path d="M1009.01 822.21v295.27H722.69V822.21z"/></clipPath><clipPath id="cp7" clipPathUnits="userSpaceOnUse"><path d="M865.85 1116.71c-79.17 0-143.16-65.82-143.16-147.25s63.99-147.25 143.16-147.25 143.16 65.82 143.16 147.25-63.99 147.25-143.16 147.25"/></clipPath><clipPath id="cp8" clipPathUnits="userSpaceOnUse"><path d="M1009.33 821.67v296H722.67v-296z"/></clipPath><clipPath id="cp9" clipPathUnits="userSpaceOnUse"><path d="M1009.01 822.21v294.6H722.69v-294.6z"/></clipPath><clipPath id="cp10" clipPathUnits="userSpaceOnUse"><path d="M865.85 1116.71c-79.17 0-143.16-65.82-143.16-147.25s63.99-147.25 143.16-147.25 143.16 65.82 143.16 147.25-63.99 147.25-143.16 147.25"/></clipPath><clipPath id="cp11" clipPathUnits="userSpaceOnUse"><path d="M305.33 822.09v295.68H17.92V822.09z"/></clipPath><clipPath id="cp12" clipPathUnits="userSpaceOnUse"><path d="M305.33 821.67V1119h-288V821.67z"/></clipPath><clipPath id="cp13" clipPathUnits="userSpaceOnUse"><path d="M304.41 822.21v295.27H18.09V822.21z"/></clipPath><clipPath id="cp14" clipPathUnits="userSpaceOnUse"><path d="M161.25 1116.71c-79.17 0-143.16-65.82-143.16-147.25s63.99-147.25 143.16-147.25 143.16 65.82 143.16 147.25-63.99 147.25-143.16 147.25"/></clipPath><clipPath id="cp15" clipPathUnits="userSpaceOnUse"><path d="M305.33 821.67v296h-288v-296z"/></clipPath><clipPath id="cp16" clipPathUnits="userSpaceOnUse"><path d="M304.41 822.21v294.6H18.09v-294.6z"/></clipPath><clipPath id="cp17" clipPathUnits="userSpaceOnUse"><path d="M161.25 1116.71c-79.17 0-143.16-65.82-143.16-147.25s63.99-147.25 143.16-147.25 143.16 65.82 143.16 147.25-63.99 147.25-143.16 147.25"/></clipPath><clipPath id="cp18" clipPathUnits="userSpaceOnUse"><path d="M868 822.09v295.58H154.67V822.09z"/></clipPath><clipPath id="cp19" clipPathUnits="userSpaceOnUse"><path d="M868 821.67v296H154.67v-296z"/></clipPath><clipPath id="cp20" clipPathUnits="userSpaceOnUse"><path d="M865.85 822.21v294.5H155.8v-294.5z"/></clipPath><clipPath id="cp21" clipPathUnits="userSpaceOnUse"><path d="M866.67 821.67v296h-712v-296z"/></clipPath><clipPath id="cp22" clipPathUnits="userSpaceOnUse"><path d="M865.85 822.21v294.5H155.8v-294.5z"/></clipPath><clipPath id="cp23" clipPathUnits="userSpaceOnUse"><path d="M1073.33 335v839.41h-1000V335z"/></clipPath><clipPath id="cp24" clipPathUnits="userSpaceOnUse"><path d="M1073.33 335v840h-1000V335z"/></clipPath><clipPath id="cp25" clipPathUnits="userSpaceOnUse"><path d="M1072.32 761.67v412.74H660V761.67z"/></clipPath><clipPath id="cp26" clipPathUnits="userSpaceOnUse"><path d="M1073.33 761.67V1175H660V761.67z"/></clipPath><clipPath id="cp27" clipPathUnits="userSpaceOnUse"><path d="M1014.67 820.33v296h-296v-296z"/></clipPath><clipPath id="cp28" clipPathUnits="userSpaceOnUse"><path d="m833.97 762.79 238.09 173.34-173.34 238.08-238.08-173.33z"/></clipPath><clipPath id="cp29" clipPathUnits="userSpaceOnUse"><path d="M953.02 849.46c-65.75-47.87-157.85-33.37-205.71 32.37-47.87 65.75-33.37 157.85 32.37 205.71 65.75 47.87 157.85 33.37 205.71-32.37 47.87-65.75 33.37-157.85-32.37-205.71"/></clipPath><clipPath id="cp30" clipPathUnits="userSpaceOnUse"><path d="M1014.67 820.33v296h-296v-296z"/></clipPath><clipPath id="cp31" clipPathUnits="userSpaceOnUse"><path d="M1014.67 820.33v296h-296v-296z"/></clipPath><clipPath id="cp32" clipPathUnits="userSpaceOnUse"><path d="m833.97 762.79 238.09 173.34-173.34 238.08-238.08-173.33z"/></clipPath><clipPath id="cp33" clipPathUnits="userSpaceOnUse"><path d="M953.02 849.46c-65.75-47.87-157.85-33.37-205.71 32.37-47.87 65.75-33.37 157.85 32.37 205.71 65.75 47.87 157.85 33.37 205.71-32.37 47.87-65.75 33.37-157.85-32.37-205.71"/></clipPath><clipPath id="cp34" clipPathUnits="userSpaceOnUse"><path d="M486.67 336.02v412.31H74.56V336.02z"/></clipPath><clipPath id="cp35" clipPathUnits="userSpaceOnUse"><path d="M486.67 335v413.33H73.33V335z"/></clipPath><clipPath id="cp36" clipPathUnits="userSpaceOnUse"><path d="M428 393.67v296H132v-296z"/></clipPath><clipPath id="cp37" clipPathUnits="userSpaceOnUse"><path d="m248.09 336.24 238.08 173.34-173.33 238.08L74.76 574.32z"/></clipPath><clipPath id="cp38" clipPathUnits="userSpaceOnUse"><path d="M367.13 422.91c-65.74-47.87-157.84-33.37-205.71 32.37-47.86 65.75-33.37 157.85 32.38 205.71 65.74 47.87 157.84 33.37 205.71-32.37 47.86-65.74 33.37-157.84-32.38-205.71"/></clipPath><clipPath id="cp39" clipPathUnits="userSpaceOnUse"><path d="M428 393.67v296H132v-296z"/></clipPath><clipPath id="cp40" clipPathUnits="userSpaceOnUse"><path d="M428 393.67v296H132v-296z"/></clipPath><clipPath id="cp41" clipPathUnits="userSpaceOnUse"><path d="m248.09 336.24 238.08 173.34-173.33 238.08L74.76 574.32z"/></clipPath><clipPath id="cp42" clipPathUnits="userSpaceOnUse"><path d="M367.13 422.91c-65.74-47.87-157.84-33.37-205.71 32.37-47.86 65.75-33.37 157.84 32.38 205.71 65.74 47.87 157.84 33.37 205.71-32.37 47.86-65.75 33.37-157.84-32.38-205.71"/></clipPath><clipPath id="cp43" clipPathUnits="userSpaceOnUse"><path d="M953.33 419v669.33H188V419z"/></clipPath><clipPath id="cp44" clipPathUnits="userSpaceOnUse"><path d="M953.28 419.53v668.16H189.12V419.53z"/></clipPath><clipPath id="cp45" clipPathUnits="userSpaceOnUse"><path d="m362.6 419.61 590.42 429.85-173.34 238.08-590.42-429.85z"/></clipPath><clipPath id="cp46" clipPathUnits="userSpaceOnUse"><path d="M953.33 419v669.33H188V419z"/></clipPath><clipPath id="cp47" clipPathUnits="userSpaceOnUse"><path d="M953.28 419.53v668.16H189.12V419.53z"/></clipPath><clipPath id="cp48" clipPathUnits="userSpaceOnUse"><path d="m362.6 419.61 590.42 429.85-173.34 238.08-590.42-429.85z"/></clipPath><clipPath id="cp49" clipPathUnits="userSpaceOnUse"><path d="M1057.33 97.61v1050.72H460V97.61z"/></clipPath><clipPath id="cp50" clipPathUnits="userSpaceOnUse"><path d="M1057.33 96.33v1052H460v-1052z"/></clipPath><clipPath id="cp51" clipPathUnits="userSpaceOnUse"><path d="M1056.32 777.67v370.18H684V777.67z"/></clipPath><clipPath id="cp52" clipPathUnits="userSpaceOnUse"><path d="M1057.33 777.67v370.66H684V777.67z"/></clipPath><clipPath id="cp53" clipPathUnits="userSpaceOnUse"><path d="M1018.67 816.33v293.34h-296V816.33z"/></clipPath><clipPath id="cp54" clipPathUnits="userSpaceOnUse"><path d="m964.96 778.63 91.19 276.69-279.94 92.26-91.19-276.69z"/></clipPath><clipPath id="cp55" clipPathUnits="userSpaceOnUse"><path d="M1010.55 916.97c-25.18-76.4-108.21-117.71-185.45-92.26-77.23 25.46-119.43 108.03-94.25 184.45 25.19 76.4 108.21 117.71 185.45 92.25 77.24-25.45 119.43-108.03 94.25-184.44"/></clipPath><clipPath id="cp56" clipPathUnits="userSpaceOnUse"><path d="M1018.67 816.33v293.34h-296V816.33z"/></clipPath><clipPath id="cp57" clipPathUnits="userSpaceOnUse"><path d="M1018.67 816.33v293.34h-296V816.33z"/></clipPath><clipPath id="cp58" clipPathUnits="userSpaceOnUse"><path d="m964.96 778.63 91.19 276.69-279.94 92.26-91.19-276.69z"/></clipPath><clipPath id="cp59" clipPathUnits="userSpaceOnUse"><path d="M1010.55 916.97c-25.18-76.4-108.21-117.71-185.45-92.26-77.23 25.46-119.43 108.03-94.25 184.45 25.19 76.4 108.21 117.71 185.45 92.25 77.24-25.45 119.43-108.03 94.25-184.44"/></clipPath><clipPath id="cp60" clipPathUnits="userSpaceOnUse"><path d="M832 97.61V467H460.48V97.61z"/></clipPath><clipPath id="cp61" clipPathUnits="userSpaceOnUse"><path d="M832 96.33V467H460V96.33z"/></clipPath><clipPath id="cp62" clipPathUnits="userSpaceOnUse"><path d="M794.67 135v293.33h-296V135z"/></clipPath><clipPath id="cp63" clipPathUnits="userSpaceOnUse"><path d="m740.55 97.71 91.19 276.7-279.94 92.26-91.19-276.7z"/></clipPath><clipPath id="cp64" clipPathUnits="userSpaceOnUse"><path d="M786.15 236.06c-25.19-76.41-108.21-117.71-185.45-92.26-77.24 25.46-119.43 108.03-94.25 184.44s108.21 117.71 185.44 92.26c77.24-25.45 119.44-108.03 94.26-184.44"/></clipPath><clipPath id="cp65" clipPathUnits="userSpaceOnUse"><path d="M794.67 135v293.33h-296V135z"/></clipPath><clipPath id="cp66" clipPathUnits="userSpaceOnUse"><path d="M794.67 135v293.33h-296V135z"/></clipPath><clipPath id="cp67" clipPathUnits="userSpaceOnUse"><path d="m740.55 97.71 91.19 276.7-279.94 92.26-91.19-276.7z"/></clipPath><clipPath id="cp68" clipPathUnits="userSpaceOnUse"><path d="M786.15 236.06c-25.19-76.41-108.21-117.71-185.45-92.26-77.24 25.46-119.43 108.03-94.25 184.44s108.21 117.71 185.44 92.26c77.24-25.45 119.44-108.03 94.26-184.44"/></clipPath><clipPath id="cp69" clipPathUnits="userSpaceOnUse"><path d="M1012 229.67V1011H504V229.67z"/></clipPath><clipPath id="cp70" clipPathUnits="userSpaceOnUse"><path d="M1010.67 230.73v778.94H504.64V230.73z"/></clipPath><clipPath id="cp71" clipPathUnits="userSpaceOnUse"><path d="m784.41 230.79 226.14 686.18-279.7 92.18-226.14-686.18z"/></clipPath><clipPath id="cp72" clipPathUnits="userSpaceOnUse"><path d="M1010.67 229.67v780H504v-780z"/></clipPath><clipPath id="cp73" clipPathUnits="userSpaceOnUse"><path d="M1010.56 230.73v778.56H504.64V230.73z"/></clipPath><clipPath id="cp74" clipPathUnits="userSpaceOnUse"><path d="m784.41 230.79 226.14 686.18-279.7 92.18-226.14-686.18z"/></clipPath><clipPath id="cp75" clipPathUnits="userSpaceOnUse"><path d="M1293.44 97.67V1159H681.33V97.67z"/></clipPath><clipPath id="cp76" clipPathUnits="userSpaceOnUse"><path d="M1294.67 97.67V1159H681.33V97.67z"/></clipPath><clipPath id="cp77" clipPathUnits="userSpaceOnUse"><path d="M1057.33 783v375.09H681.92V783z"/></clipPath><clipPath id="cp78" clipPathUnits="userSpaceOnUse"><path d="M1057.33 783v376h-376V783z"/></clipPath><clipPath id="cp79" clipPathUnits="userSpaceOnUse"><path d="M1017.33 823v296h-296V823z"/></clipPath><clipPath id="cp80" clipPathUnits="userSpaceOnUse"><path d="m1056.51 879.54-96.21 278.35-278.34-96.21 96.21-278.34z"/></clipPath><clipPath id="cp81" clipPathUnits="userSpaceOnUse"><path d="M1008.41 1018.71c26.56-76.86-14.21-160.7-91.07-187.27s-160.7 14.21-187.27 91.07 14.2 160.7 91.07 187.27c76.85 26.57 160.7-14.21 187.27-91.07"/></clipPath><clipPath id="cp82" clipPathUnits="userSpaceOnUse"><path d="M1017.33 823v296h-296V823z"/></clipPath><clipPath id="cp83" clipPathUnits="userSpaceOnUse"><path d="M1017.33 823v296h-296V823z"/></clipPath><clipPath id="cp84" clipPathUnits="userSpaceOnUse"><path d="m1056.51 879.54-96.21 278.35-278.34-96.21 96.21-278.34z"/></clipPath><clipPath id="cp85" clipPathUnits="userSpaceOnUse"><path d="M1008.41 1018.71c26.56-76.86-14.21-160.7-91.07-187.27s-160.7 14.21-187.27 91.07 14.2 160.7 91.07 187.27c76.85 26.57 160.7-14.21 187.27-91.07"/></clipPath><clipPath id="cp86" clipPathUnits="userSpaceOnUse"><path d="M1293.44 98.26v375.41H917.33V98.26z"/></clipPath><clipPath id="cp87" clipPathUnits="userSpaceOnUse"><path d="M1294.67 97.67v376H917.33v-376z"/></clipPath><clipPath id="cp88" clipPathUnits="userSpaceOnUse"><path d="M1253.33 137.67v296H958.67v-296z"/></clipPath><clipPath id="cp89" clipPathUnits="userSpaceOnUse"><path d="m1293.26 194.59-96.21 278.34-278.34-96.2 96.2-278.34z"/></clipPath><clipPath id="cp90" clipPathUnits="userSpaceOnUse"><path d="M1245.15 333.76c26.57-76.86-14.21-160.7-91.07-187.27-76.86-26.56-160.7 14.21-187.27 91.07s14.21 160.71 91.07 187.27c76.86 26.57 160.7-14.2 187.27-91.07"/></clipPath><clipPath id="cp91" clipPathUnits="userSpaceOnUse"><path d="M1253.33 137.67v296H958.67v-296z"/></clipPath><clipPath id="cp92" clipPathUnits="userSpaceOnUse"><path d="M1253.33 137.67v296H958.67v-296z"/></clipPath><clipPath id="cp93" clipPathUnits="userSpaceOnUse"><path d="m1293.26 194.59-96.21 278.34-278.34-96.2 96.2-278.34z"/></clipPath><clipPath id="cp94" clipPathUnits="userSpaceOnUse"><path d="M1245.15 333.76c26.57-76.86-14.21-160.7-91.07-187.27-76.86-26.56-160.7 14.21-187.27 91.07s14.21 160.71 91.07 187.27c76.86 26.57 160.7-14.2 187.27-91.07"/></clipPath><clipPath id="cp95" clipPathUnits="userSpaceOnUse"><path d="M1248 231v788H729.33V231z"/></clipPath><clipPath id="cp96" clipPathUnits="userSpaceOnUse"><path d="M1247.04 232.02v786.88H729.92V232.02z"/></clipPath><clipPath id="cp97" clipPathUnits="userSpaceOnUse"><path d="m1246.98 328.46-238.57 690.25-278.34-96.2 238.57-690.25z"/></clipPath><clipPath id="cp98" clipPathUnits="userSpaceOnUse"><path d="M1248 231v788H729.33V231z"/></clipPath><clipPath id="cp99" clipPathUnits="userSpaceOnUse"><path d="M1247.04 232.02v786.88H729.92V232.02z"/></clipPath><clipPath id="cp100" clipPathUnits="userSpaceOnUse"><path d="m1246.98 328.46-238.57 690.25-278.34-96.2 238.57-690.25z"/></clipPath><clipPath id="cp101" clipPathUnits="userSpaceOnUse"><path d="M232 897.67v142.66H88V897.67z"/></clipPath><clipPath id="cp102" clipPathUnits="userSpaceOnUse"><path d="M230.66 898.67v141.59H89.07V898.67z"/></clipPath><clipPath id="cp103" clipPathUnits="userSpaceOnUse"><path d="M159.87 1040.26c-39.15 0-70.8-31.65-70.8-70.8s31.65-70.79 70.8-70.79 70.79 31.64 70.79 70.79-31.64 70.8-70.79 70.8"/></clipPath><clipPath id="cp104" clipPathUnits="userSpaceOnUse"><path d="M230.67 897.67v142.66H88V897.67z"/></clipPath><clipPath id="cp105" clipPathUnits="userSpaceOnUse"><path d="M230.66 898.67v141.59H89.07V898.67z"/></clipPath><clipPath id="cp106" clipPathUnits="userSpaceOnUse"><path d="M159.87 1040.26c-39.15 0-70.8-31.65-70.8-70.8s31.65-70.79 70.8-70.79 70.79 31.64 70.79 70.79-31.64 70.8-70.79 70.8"/></clipPath><clipPath id="cp107" clipPathUnits="userSpaceOnUse"><path d="M940 912.33V1055H797.33V912.33z"/></clipPath><clipPath id="cp108" clipPathUnits="userSpaceOnUse"><path d="M939.58 912.68v141.6h-141.6v-141.6z"/></clipPath><clipPath id="cp109" clipPathUnits="userSpaceOnUse"><path d="M868.78 1054.28c-39.15 0-70.8-31.65-70.8-70.8s31.65-70.8 70.8-70.8 70.8 31.65 70.8 70.8-31.65 70.8-70.8 70.8"/></clipPath><clipPath id="cp110" clipPathUnits="userSpaceOnUse"><path d="M940 912.33V1055H797.33V912.33z"/></clipPath><clipPath id="cp111" clipPathUnits="userSpaceOnUse"><path d="M939.58 912.68v141.6h-141.6v-141.6z"/></clipPath><clipPath id="cp112" clipPathUnits="userSpaceOnUse"><path d="M868.78 1054.28c-39.15 0-70.8-31.65-70.8-70.8s31.65-70.8 70.8-70.8 70.8 31.65 70.8 70.8-31.65 70.8-70.8 70.8"/></clipPath><clipPath id="cp113" clipPathUnits="userSpaceOnUse"><path d="M1177.33 209.67v142.66h-144V209.67z"/></clipPath><clipPath id="cp114" clipPathUnits="userSpaceOnUse"><path d="M1176.28 210.19v141.59h-141.6V210.19z"/></clipPath><clipPath id="cp115" clipPathUnits="userSpaceOnUse"><path d="M1105.48 351.78c-39.15 0-70.8-31.64-70.8-70.79s31.65-70.8 70.8-70.8 70.8 31.65 70.8 70.8-31.65 70.79-70.8 70.79"/></clipPath><clipPath id="cp116" clipPathUnits="userSpaceOnUse"><path d="M1177.33 209.67v142.66h-142.66V209.67z"/></clipPath><clipPath id="cp117" clipPathUnits="userSpaceOnUse"><path d="M1176.28 210.19v141.59h-141.6V210.19z"/></clipPath><clipPath id="cp118" clipPathUnits="userSpaceOnUse"><path d="M1105.48 351.78c-39.15 0-70.8-31.64-70.8-70.79s31.65-70.8 70.8-70.8 70.8 31.65 70.8 70.8-31.65 70.79-70.8 70.79"/></clipPath><clipPath id="cp119" clipPathUnits="userSpaceOnUse"><path d="M716 209.67v142.66H572V209.67z"/></clipPath><clipPath id="cp120" clipPathUnits="userSpaceOnUse"><path d="M714.99 210.19v141.59H573.41V210.19z"/></clipPath><clipPath id="cp121" clipPathUnits="userSpaceOnUse"><path d="M644.2 351.78c-39.15 0-70.79-31.64-70.79-70.79s31.64-70.8 70.79-70.8 70.79 31.65 70.79 70.8-31.64 70.79-70.79 70.79"/></clipPath><clipPath id="cp122" clipPathUnits="userSpaceOnUse"><path d="M716 209.67v142.66H573.33V209.67z"/></clipPath><clipPath id="cp123" clipPathUnits="userSpaceOnUse"><path d="M714.99 210.19v141.59H573.41V210.19z"/></clipPath><clipPath id="cp124" clipPathUnits="userSpaceOnUse"><path d="M644.2 351.78c-39.15 0-70.79-31.64-70.79-70.79s31.64-70.8 70.79-70.8 70.79 31.65 70.79 70.8-31.64 70.79-70.79 70.79"/></clipPath><clipPath id="cp125" clipPathUnits="userSpaceOnUse"><path d="M345.33 461.67v144h-144v-144z"/></clipPath><clipPath id="cp126" clipPathUnits="userSpaceOnUse"><path d="M344.16 462.78v141.6H202.57v-141.6z"/></clipPath><clipPath id="cp127" clipPathUnits="userSpaceOnUse"><path d="M273.36 604.38c-39.15 0-70.79-31.65-70.79-70.8s31.64-70.8 70.79-70.8 70.8 31.65 70.8 70.8-31.65 70.8-70.8 70.8"/></clipPath><clipPath id="cp128" clipPathUnits="userSpaceOnUse"><path d="M345.33 461.67v144h-144v-144z"/></clipPath><clipPath id="cp129" clipPathUnits="userSpaceOnUse"><path d="M344.16 462.78v141.6H202.57v-141.6z"/></clipPath><clipPath id="cp130" clipPathUnits="userSpaceOnUse"><path d="M273.36 604.38c-39.15 0-70.79-31.65-70.79-70.8s31.64-70.8 70.79-70.8 70.8 31.65 70.8 70.8-31.65 70.8-70.8 70.8"/></clipPath></defs><style>.s0{fill:#ff3131}.s1{fill:#fac02d}.s2{fill:#4caf50}.s3{fill:#1e88e5}.s4{fill:#fff}</style><g id="Clip-Path" clip-path="url(#cp1)"><g clip-path="url(#cp2)"><g clip-path="url(#cp3)"><g clip-path="url(#cp4)"><g clip-path="url(#cp5)"><g clip-path="url(#cp6)"><g clip-path="url(#cp7)"><g clip-path="url(#cp8)"><g clip-path="url(#cp9)"><g clip-path="url(#cp10)"><path fill-rule="evenodd" d="M1009.01 822.21v294.16H722.69V822.21z" class="s0"/></g></g></g></g></g></g></g><g clip-path="url(#cp11)"><g clip-path="url(#cp12)"><g clip-path="url(#cp13)"><g clip-path="url(#cp14)"><g clip-path="url(#cp15)"><g clip-path="url(#cp16)"><g clip-path="url(#cp17)"><path fill-rule="evenodd" d="M304.41 822.21v294.16H18.09V822.21z" class="s0"/></g></g></g></g></g></g></g><g clip-path="url(#cp18)"><g clip-path="url(#cp19)"><g clip-path="url(#cp20)"><g clip-path="url(#cp21)"><g clip-path="url(#cp22)"><path fill-rule="evenodd" d="M865.58 822.21v294.5H155.8v-294.5z" class="s0"/></g></g></g></g></g></g></g><g clip-path="url(#cp23)"><g clip-path="url(#cp24)"><g clip-path="url(#cp25)"><g clip-path="url(#cp26)"><g clip-path="url(#cp27)"><g clip-path="url(#cp28)"><g clip-path="url(#cp29)"><g clip-path="url(#cp30)"><g clip-path="url(#cp31)"><g clip-path="url(#cp32)"><g clip-path="url(#cp33)"><path d="m833.97 762.79 238.09 173.34-173.34 238.08-238.08-173.33z" class="s1"/></g></g></g></g></g></g></g></g></g><g clip-path="url(#cp34)"><g clip-path="url(#cp35)"><g clip-path="url(#cp36)"><g clip-path="url(#cp37)"><g clip-path="url(#cp38)"><g clip-path="url(#cp39)"><g clip-path="url(#cp40)"><g clip-path="url(#cp41)"><g clip-path="url(#cp42)"><path d="m248.09 336.24 238.08 173.34-173.33 238.08L74.76 574.32z" class="s1"/></g></g></g></g></g></g></g></g></g><g clip-path="url(#cp43)"><g clip-path="url(#cp44)"><g clip-path="url(#cp45)"><g clip-path="url(#cp46)"><g clip-path="url(#cp47)"><g clip-path="url(#cp48)"><path d="m362.6 419.61 590.56 429.95-173.34 238.08-590.56-429.95z" class="s1"/></g></g></g></g></g></g></g></g><g clip-path="url(#cp49)"><g clip-path="url(#cp50)"><g clip-path="url(#cp51)"><g clip-path="url(#cp52)"><g clip-path="url(#cp53)"><g clip-path="url(#cp54)"><g clip-path="url(#cp55)"><g clip-path="url(#cp56)"><g clip-path="url(#cp57)"><g clip-path="url(#cp58)"><g clip-path="url(#cp59)"><path d="m964.96 778.63 91.19 276.69-279.94 92.26-91.19-276.69z" class="s2"/></g></g></g></g></g></g></g></g></g><g clip-path="url(#cp60)"><g clip-path="url(#cp61)"><g clip-path="url(#cp62)"><g clip-path="url(#cp63)"><g clip-path="url(#cp64)"><g clip-path="url(#cp65)"><g clip-path="url(#cp66)"><g clip-path="url(#cp67)"><g clip-path="url(#cp68)"><path d="m740.55 97.71 91.19 276.7-279.94 92.26-91.19-276.7z" class="s2"/></g></g></g></g></g></g></g></g></g><g clip-path="url(#cp69)"><g clip-path="url(#cp70)"><g clip-path="url(#cp71)"><g clip-path="url(#cp72)"><g clip-path="url(#cp73)"><g clip-path="url(#cp74)"><path d="m784.41 230.79 226.13 686.14-279.7 92.18-226.13-686.14z" class="s2"/></g></g></g></g></g></g></g></g><g clip-path="url(#cp75)"><g clip-path="url(#cp76)"><g clip-path="url(#cp77)"><g clip-path="url(#cp78)"><g clip-path="url(#cp79)"><g clip-path="url(#cp80)"><g clip-path="url(#cp81)"><g clip-path="url(#cp82)"><g clip-path="url(#cp83)"><g clip-path="url(#cp84)"><g clip-path="url(#cp85)"><path d="m1056.51 879.54-96.21 278.35-278.34-96.21 96.21-278.34z" class="s3"/></g></g></g></g></g></g></g></g></g><g clip-path="url(#cp86)"><g clip-path="url(#cp87)"><g clip-path="url(#cp88)"><g clip-path="url(#cp89)"><g clip-path="url(#cp90)"><g clip-path="url(#cp91)"><g clip-path="url(#cp92)"><g clip-path="url(#cp93)"><g clip-path="url(#cp94)"><path d="m1293.26 194.59-96.21 278.34-278.34-96.2 96.2-278.34z" class="s3"/></g></g></g></g></g></g></g></g></g><g clip-path="url(#cp95)"><g clip-path="url(#cp96)"><g clip-path="url(#cp97)"><g clip-path="url(#cp98)"><g clip-path="url(#cp99)"><g clip-path="url(#cp100)"><path d="m1246.98 328.46-238.63 690.41-278.34-96.2 238.63-690.41z" class="s3"/></g></g></g></g></g></g></g></g><g clip-path="url(#cp101)"><g clip-path="url(#cp102)"><g clip-path="url(#cp103)"><g clip-path="url(#cp104)"><g clip-path="url(#cp105)"><g clip-path="url(#cp106)"><path fill-rule="evenodd" d="M230.66 898.67v141.59H89.07V898.67z" class="s4"/></g></g></g></g></g></g><g clip-path="url(#cp107)"><g clip-path="url(#cp108)"><g clip-path="url(#cp109)"><g clip-path="url(#cp110)"><g clip-path="url(#cp111)"><g clip-path="url(#cp112)"><path fill-rule="evenodd" d="M939.58 912.68v141.6h-141.6v-141.6z" class="s4"/></g></g></g></g></g></g><g clip-path="url(#cp113)"><g clip-path="url(#cp114)"><g clip-path="url(#cp115)"><g clip-path="url(#cp116)"><g clip-path="url(#cp117)"><g clip-path="url(#cp118)"><path fill-rule="evenodd" d="M1176.28 210.19v141.59h-141.6V210.19z" class="s4"/></g></g></g></g></g></g><g clip-path="url(#cp119)"><g clip-path="url(#cp120)"><g clip-path="url(#cp121)"><g clip-path="url(#cp122)"><g clip-path="url(#cp123)"><g clip-path="url(#cp124)"><path fill-rule="evenodd" d="M714.99 210.19v141.59H573.41V210.19z" class="s4"/></g></g></g></g></g></g><g clip-path="url(#cp125)"><g clip-path="url(#cp126)"><g clip-path="url(#cp127)"><g clip-path="url(#cp128)"><g clip-path="url(#cp129)"><g clip-path="url(#cp130)"><path fill-rule="evenodd" d="M344.16 462.78v141.6H202.57v-141.6z" class="s4"/></g></g></g></g></g></g></g></svg>