<svg version="1.2" xmlns="http://www.w3.org/2000/svg" viewBox="0 0 2213 2504" width="2213" height="2504"><style>.a{fill:#d4b830}.b{fill:#fdd83c}.c{fill:#fff}</style><path class="a" d="m220.7 2237.7l-201.8-2221.7 2174.2 0.9-200.1 2219.1-888.7 251zm1608.6-121.2l168.7-1902.9h-890.3l6.8 2098.8zm-804.8-1623.9h-216.2l-2.6 1138.8-419.7-114.6 0.9 260.4 637.6 172.1z"/><path class="b" d="m1103 211.1h895.5l-169.8 1914.2-725.7 197z"/><path class="c" d="m384.7 1778.2l-0.8-260.8c0 0 268.3 75.6 420.4 114.6l2.5-1139.8h216.6v1458.4z"/><path class="c" d="m1783.6 1797.7l58.6-712.7-433.2 48.5v-380.6l462.1-1.7 18.6-259.9-697.3 3.4 9.4 946.1 421.2-72.1-5.9 210.6-424.7 113 4.3 258.2z"/></svg>