<?xml version="1.0" encoding="UTF-8" standalone="no"?><!DOCTYPE svg PUBLIC "-//W3C//DTD SVG 1.1//EN" "http://www.w3.org/Graphics/SVG/1.1/DTD/svg11.dtd"><svg width="100%" height="100%" viewBox="0 0 128 128" version="1.1" xmlns="http://www.w3.org/2000/svg" xmlns:xlink="http://www.w3.org/1999/xlink" xml:space="preserve" xmlns:serif="http://www.serif.com/" style="fill-rule:evenodd;clip-rule:evenodd;stroke-linejoin:round;stroke-miterlimit:2;"><path d="M57.538,102.528l-0.199,0l-5.703,-5.393l-15.986,-23.176l-4.463,15.401l-4.126,-1.936l-6.252,-10.699l1.285,-19.52l1.285,-8.733l-8.995,-16.695l-5.654,-10.53l-8.729,-12.585l4.875,-4.623l12.85,1.798l4.883,4.366l23.9,7.192l22.615,20.29l16.447,33.132l5.14,7.448l22.101,12.585l6.682,6.678l0.467,2.622l-19.35,4.378l27.185,22.057c-13.585,0.05 -27.517,-2.202 -39.767,-6.527c-10.924,-3.856 -20.756,-9.774 -30.489,-17.532Z" style="fill:#fff;"/><path d="M117.688,98.242c-6.973,-0.191 -12.297,0.461 -16.852,2.379c-1.293,0.547 -3.355,0.559 -3.566,2.18c0.711,0.746 0.82,1.859 1.387,2.777c1.086,1.754 2.922,4.113 4.559,5.352c1.789,1.348 3.633,2.793 5.551,3.961c3.414,2.082 7.223,3.27 10.504,5.352c1.938,1.23 3.859,2.777 5.75,4.164c0.934,0.684 1.563,1.75 2.773,2.18l0,-0.195c-0.637,-0.812 -0.801,-1.93 -1.387,-2.777l-2.578,-2.578c-2.52,-3.344 -5.719,-6.281 -9.117,-8.719c-2.711,-1.949 -8.781,-4.578 -9.91,-7.73l-0.199,-0.199c1.922,-0.219 4.172,-0.914 5.949,-1.391c2.98,-0.797 5.645,-0.59 8.719,-1.387l4.164,-1.187l0,-0.793c-1.555,-1.594 -2.664,-3.707 -4.359,-5.152c-4.441,-3.781 -9.285,-7.555 -14.273,-10.703c-2.766,-1.746 -6.184,-2.883 -9.117,-4.363c-0.988,-0.496 -2.719,-0.758 -3.371,-1.586c-1.539,-1.961 -2.379,-4.449 -3.566,-6.738c-2.488,-4.793 -4.93,-10.023 -7.137,-15.066c-1.504,-3.437 -2.484,-6.828 -4.359,-9.91c-9,-14.797 -18.687,-23.73 -33.695,-32.508c-3.195,-1.867 -7.039,-2.605 -11.102,-3.57l-6.543,-0.395c-1.332,-0.555 -2.715,-2.184 -3.965,-2.977c-4.971,-3.143 -17.725,-9.975 -21.409,-0.991c-2.324,5.668 3.477,11.199 5.551,14.074c1.457,2.012 3.32,4.273 4.359,6.539c0.688,1.492 0.805,2.984 1.391,4.559c1.438,3.883 2.695,8.109 4.559,11.695c0.941,1.816 1.98,3.727 3.172,5.352c0.727,0.996 1.98,1.438 2.18,2.973c-1.227,1.715 -1.297,4.375 -1.984,6.543c-3.098,9.77 -1.926,21.91 2.578,29.137c1.383,2.223 4.641,6.98 9.117,5.156c3.918,-1.598 3.043,-6.539 4.164,-10.902c0.254,-0.988 0.098,-1.715 0.594,-2.379l0,0.199l3.57,7.133c2.641,4.254 7.324,8.699 11.297,11.699c2.059,1.555 3.68,4.242 6.344,5.152l0,-0.199l-0.199,0c-0.516,-0.805 -1.324,-1.137 -1.98,-1.781c-1.551,-1.523 -3.277,-3.414 -4.559,-5.156c-3.613,-4.902 -6.805,-10.27 -9.711,-15.855c-1.391,-2.668 -2.598,-5.609 -3.77,-8.324c-0.453,-1.047 -0.445,-2.633 -1.387,-3.172c-1.281,1.988 -3.172,3.598 -4.164,5.945c-1.582,3.754 -1.789,8.336 -2.375,13.082c-0.348,0.125 -0.195,0.039 -0.398,0.199c-2.762,-0.668 -3.73,-3.508 -4.758,-5.949c-2.594,-6.164 -3.078,-16.09 -0.793,-23.191c0.59,-1.836 3.262,-7.617 2.18,-9.316c-0.516,-1.691 -2.219,-2.672 -3.172,-3.965c-1.18,-1.598 -2.355,-3.703 -3.172,-5.551c-2.125,-4.805 -3.113,-10.203 -5.352,-15.062c-1.07,-2.324 -2.875,-4.676 -4.359,-6.738c-1.645,-2.289 -3.484,-3.977 -4.758,-6.742c-0.453,-0.984 -1.066,-2.559 -0.398,-3.566c0.215,-0.684 0.516,-0.969 1.191,-1.191c1.148,-0.887 4.352,0.297 5.547,0.793c3.18,1.32 5.832,2.578 8.527,4.363c1.289,0.855 2.598,2.512 4.16,2.973l1.785,0c2.789,0.641 5.914,0.195 8.523,0.988c4.609,1.402 8.738,3.582 12.488,5.949c11.422,7.215 20.766,17.48 27.156,29.734c1.027,1.973 1.473,3.852 2.379,5.945c1.824,4.219 4.125,8.559 5.941,12.688c1.816,4.113 3.582,8.27 6.148,11.695c1.348,1.801 6.551,2.766 8.918,3.766c1.66,0.699 4.379,1.43 5.949,2.379c3,1.809 5.906,3.965 8.723,5.945c1.402,0.992 5.73,3.168 5.945,4.957l0.002,-0.003Zm-88.605,-75.52c-1.453,-0.027 -2.48,0.156 -3.566,0.395l0,0.199l0.195,0c0.695,1.422 1.918,2.34 2.777,3.566l1.98,4.164l0.199,-0.195c1.227,-0.867 1.789,-2.25 1.781,-4.363c-0.492,-0.52 -0.562,-1.164 -0.992,-1.785c-0.562,-0.824 -1.66,-1.289 -2.375,-1.98l0.001,-0.001Z" style="fill:#00618a;fill-rule:nonzero;"/></svg>